<?xml version="1.0" standalone="no"?>
<!DOCTYPE svg PUBLIC "-//W3C//DTD SVG 20010904//EN"
 "http://www.w3.org/TR/2001/REC-SVG-20010904/DTD/svg10.dtd">
<svg version="1.0" xmlns="http://www.w3.org/2000/svg"
 width="2936.000000pt" height="2936.000000pt" viewBox="0 0 2936.000000 2936.000000"
 preserveAspectRatio="xMidYMid meet">
<metadata>
Created by potrace 1.11, written by Peter Selinger 2001-2013
</metadata>
<g transform="translate(0.000000,2936.000000) scale(0.100000,-0.100000)"
fill="#000000" stroke="none">
<path d="M14770 22331 l-805 -7 -630 -72 c-1219 -140 -1355 -157 -1461 -188
-45 -13 -168 -62 -275 -110 -107 -48 -349 -154 -539 -236 -190 -82 -355 -159
-368 -171 -13 -12 -28 -31 -32 -43 -6 -16 -23 -24 -67 -33 -63 -12 -127 -50
-168 -100 -15 -17 -37 -31 -48 -31 -39 -1 -101 -37 -152 -89 -27 -28 -54 -51
-59 -51 -10 0 -20 -8 -84 -71 -15 -15 -44 -35 -65 -44 -22 -10 -43 -28 -49
-40 -14 -31 -63 -44 -200 -55 -295 -24 -504 -87 -694 -211 -40 -26 -72 -39
-95 -39 -19 0 -47 -9 -64 -20 -16 -11 -40 -20 -52 -20 -12 0 -35 -11 -51 -25
-17 -14 -36 -25 -44 -25 -8 0 -30 -11 -48 -25 -19 -14 -52 -31 -73 -37 -21 -6
-49 -23 -63 -37 -117 -124 -194 -211 -194 -220 0 -6 -25 -22 -55 -37 -38 -17
-60 -36 -72 -57 -16 -33 -32 -50 -188 -207 -92 -93 -134 -158 -135 -207 0 -12
-9 -27 -20 -33 -14 -7 -20 -21 -20 -44 0 -19 -11 -54 -25 -77 -14 -24 -25 -52
-25 -61 0 -9 -6 -29 -14 -45 -44 -87 -88 -196 -93 -229 -3 -22 -11 -46 -19
-54 -7 -8 -14 -28 -16 -45 -2 -20 -11 -34 -29 -42 -60 -29 -62 -38 -70 -246
-4 -106 -13 -258 -20 -339 -25 -305 10 -476 132 -655 16 -23 29 -53 29 -66 0
-14 7 -38 15 -53 8 -16 15 -37 15 -47 0 -36 30 -88 94 -161 36 -41 78 -101 95
-133 72 -143 250 -342 588 -655 95 -88 182 -175 193 -193 34 -55 27 -89 -37
-174 -91 -121 -473 -530 -516 -552 -40 -21 -57 -51 -57 -100 l0 -30 103 7 c81
5 115 3 159 -10 66 -19 88 -44 88 -97 0 -67 -82 -109 -213 -109 -77 0 -107
-34 -39 -45 87 -15 156 -41 315 -120 l167 -83 56 -74 c93 -122 137 -161 442
-396 l292 -225 0 -83 c0 -74 3 -87 30 -131 16 -26 63 -120 103 -209 186 -404
417 -722 703 -965 141 -119 418 -322 531 -388 59 -35 344 -184 633 -331 289
-148 529 -275 534 -283 20 -32 -10 -43 -146 -56 -73 -7 -164 -19 -203 -27 -38
-8 -95 -19 -125 -25 -30 -6 -97 -24 -148 -40 -51 -16 -102 -29 -114 -29 -12 0
-81 -20 -153 -44 -71 -24 -148 -46 -169 -50 -21 -3 -49 -14 -61 -26 -12 -11
-28 -20 -37 -20 -8 0 -27 -9 -41 -20 -14 -11 -29 -20 -35 -20 -5 0 -54 -45
-108 -101 -55 -55 -118 -114 -141 -130 -24 -17 -43 -35 -43 -42 0 -7 -17 -23
-36 -37 -137 -96 -156 -120 -175 -208 -16 -81 -40 -142 -54 -142 -7 0 -14 -22
-18 -56 -4 -43 -12 -61 -32 -80 -17 -15 -25 -31 -21 -40 4 -9 -3 -55 -15 -103
-17 -69 -22 -121 -24 -266 -3 -226 -20 -384 -43 -401 -13 -9 -17 -28 -17 -73
-1 -47 -6 -65 -22 -83 -15 -17 -22 -41 -26 -93 -2 -38 -11 -83 -20 -100 -8
-16 -21 -66 -27 -109 -10 -64 -17 -83 -36 -99 -22 -17 -23 -24 -18 -72 6 -47
4 -57 -19 -87 -23 -31 -25 -40 -24 -133 l2 -100 45 -23 c27 -13 50 -33 57 -50
13 -32 89 -70 193 -97 36 -10 85 -25 110 -35 25 -10 79 -25 120 -35 41 -10 88
-25 105 -33 17 -8 76 -18 141 -22 62 -5 124 -15 140 -23 16 -8 70 -17 119 -20
50 -4 128 -13 175 -21 47 -8 113 -18 148 -21 l62 -7 0 -98 c0 -77 -5 -116 -24
-177 -14 -43 -37 -129 -51 -190 -29 -125 -60 -209 -104 -281 -31 -49 -50 -114
-51 -169 0 -49 -20 -83 -62 -104 -42 -21 -58 -51 -58 -104 0 -22 -9 -45 -27
-65 -18 -22 -28 -47 -31 -81 -3 -35 -11 -54 -25 -64 -14 -10 -21 -29 -25 -66
-4 -39 -9 -53 -23 -56 -12 -3 -20 -19 -24 -46 -11 -60 -36 -130 -94 -255 -29
-61 -55 -127 -58 -146 l-6 -36 4192 0 c2305 0 4191 2 4191 4 0 30 -61 180
-135 336 -72 151 -107 239 -154 390 -92 299 -137 423 -206 570 -74 160 -85
191 -126 375 -17 77 -40 163 -50 190 -10 28 -19 51 -19 53 0 1 26 2 58 2 31 1
104 9 162 20 58 10 159 26 225 36 66 9 127 19 135 22 8 3 27 6 41 7 84 7 281
39 324 52 28 9 68 26 90 38 22 13 66 25 97 29 112 12 238 73 337 162 110 99
120 231 28 340 -22 26 -43 93 -116 386 -99 392 -121 519 -121 706 0 266 -55
458 -212 735 -35 63 -70 112 -82 117 -26 10 -104 89 -120 121 -8 17 -22 25
-46 27 -37 4 -76 33 -86 64 -3 10 -27 29 -53 43 -27 13 -51 31 -54 40 -4 8
-13 15 -20 15 -18 0 -108 42 -162 75 -75 47 -310 108 -655 171 -430 78 -620
119 -620 134 0 29 27 61 59 71 166 54 868 391 1149 553 324 186 543 359 694
547 38 48 75 90 83 93 8 3 28 30 46 61 17 30 40 60 50 66 11 5 19 20 19 34 0
16 18 42 50 74 38 38 51 59 56 91 4 25 14 45 25 51 13 6 19 21 19 44 0 25 6
39 24 50 15 10 26 29 30 54 5 33 10 38 43 47 31 7 39 14 41 36 2 15 12 34 23
42 11 8 22 25 23 37 4 36 28 132 37 150 9 18 101 46 274 83 125 27 205 53 205
67 0 14 -42 36 -80 44 -65 12 -127 35 -148 56 -32 29 -28 71 14 153 104 205
269 367 478 469 50 24 135 66 189 92 160 78 241 166 254 278 4 36 16 66 40 98
45 64 107 200 127 280 9 37 21 115 26 174 11 113 22 145 64 184 14 14 26 28
26 31 0 4 -26 21 -57 38 -89 47 -143 90 -158 125 -12 29 -11 41 9 109 12 43
25 81 29 84 4 4 7 17 7 29 0 12 11 59 25 106 14 46 46 183 71 304 74 362 106
468 151 514 41 41 71 152 77 286 2 61 10 135 16 165 6 30 10 93 9 140 -2 50 2
94 9 106 6 12 9 24 6 27 -12 11 7 44 31 55 19 9 25 19 25 42 0 20 9 39 24 53
17 16 24 33 24 61 0 24 7 45 21 60 11 12 27 41 36 66 8 24 33 66 54 94 60 79
83 133 89 207 6 82 -8 132 -98 349 -71 173 -107 279 -140 420 -34 143 -49 161
-400 472 -173 153 -325 292 -337 309 -12 17 -37 40 -55 52 -18 13 -39 35 -46
49 -7 15 -21 30 -32 33 -10 3 -27 21 -38 39 -17 29 -92 76 -123 76 -5 0 -21
13 -34 28 -24 28 -59 46 -197 102 -42 17 -105 53 -140 79 -82 62 -159 105
-228 127 -30 9 -64 25 -75 34 -11 10 -37 23 -57 31 -20 7 -39 21 -41 31 -4 12
-14 18 -34 18 -15 0 -41 9 -58 20 -16 11 -36 20 -44 20 -8 0 -64 32 -125 71
-158 103 -268 152 -451 202 -88 25 -254 72 -368 105 -114 34 -267 73 -340 88
-77 15 -142 34 -155 45 -13 9 -37 21 -55 24 -43 9 -190 62 -253 91 -28 13 -59
24 -70 24 -10 1 -37 9 -59 20 -23 11 -62 19 -92 20 -29 0 -78 7 -110 15 -31 8
-78 15 -103 15 -25 0 -52 6 -58 13 -7 6 -45 15 -85 18 -40 3 -123 18 -186 33
-63 15 -245 49 -405 76 -160 27 -356 60 -436 74 -365 62 -468 66 -1630 57z
m-4430 -4051 c89 -45 130 -73 315 -220 209 -166 410 -314 549 -405 123 -80
141 -97 151 -137 l7 -28 -183 1 c-101 0 -238 5 -304 10 -168 13 -161 13 -350
9 -125 -2 -173 -7 -183 -17 -36 -36 -109 -28 -178 20 -60 41 -80 80 -106 204
-39 181 -25 441 27 543 36 70 140 78 255 20z m1003 -1225 c228 -9 386 -19 399
-26 15 -8 27 -8 45 0 26 12 328 15 407 5 40 -6 46 -10 46 -31 l0 -24 -317 4
c-175 3 -337 8 -361 12 -30 5 -54 2 -84 -10 -31 -12 -107 -20 -283 -31 -268
-15 -381 -27 -534 -55 -132 -24 -141 -24 -141 1 0 11 -18 40 -40 64 -22 24
-40 50 -40 58 0 10 17 20 44 28 117 33 144 33 859 5z m2618 -295 c12 -17 35
-23 140 -35 318 -37 1162 -145 1167 -149 8 -9 -58 -104 -94 -135 -59 -52 -87
-55 -411 -43 -212 8 -351 8 -513 0 -199 -10 -226 -10 -275 6 -66 20 -120 75
-111 112 5 19 0 26 -24 39 -33 17 -70 69 -70 97 0 35 23 68 47 68 13 0 34 11
46 24 12 13 34 26 47 29 14 2 28 5 31 6 4 0 13 -8 20 -19z m755 -610 c134 -34
314 -137 314 -178 0 -7 6 -12 14 -12 20 0 89 -108 223 -349 134 -240 216 -366
305 -471 90 -105 165 -168 378 -319 102 -72 190 -135 196 -139 5 -5 27 -15 47
-21 21 -7 50 -24 66 -37 51 -43 284 -134 501 -195 233 -66 548 -124 815 -149
66 -7 149 -15 185 -19 92 -9 480 6 640 25 291 34 658 113 862 185 l141 49 -6
-49 c-3 -28 -14 -65 -23 -83 -23 -45 -273 -303 -306 -316 -17 -7 -33 -25 -43
-48 -21 -52 -295 -322 -470 -464 -77 -63 -201 -164 -275 -225 -74 -62 -148
-115 -165 -119 -39 -10 -55 -24 -55 -47 0 -11 -7 -19 -17 -19 -10 0 -45 -13
-78 -28 -33 -16 -72 -32 -86 -35 l-26 -7 -5 206 c-4 188 -6 208 -23 220 -10 8
-28 14 -40 14 -15 0 -33 17 -59 54 -83 121 -253 254 -431 337 -202 95 -380
145 -748 214 -134 24 -277 52 -318 61 -41 8 -103 17 -139 20 -36 2 -107 11
-158 20 -82 15 -93 19 -98 40 -3 13 -3 31 0 39 8 21 67 45 108 45 50 0 105 18
135 44 23 20 27 31 27 79 1 45 -3 60 -23 81 -32 34 -74 34 -154 -1 -66 -29
-96 -31 -437 -24 -125 2 -165 -5 -382 -72 -64 -20 -140 -39 -170 -43 -29 -4
-65 -13 -80 -20 -15 -8 -40 -14 -56 -14 -16 0 -56 -12 -88 -27 -109 -50 -250
-44 -437 18 -49 16 -123 32 -165 35 -57 5 -85 12 -107 29 -98 72 -244 112
-379 101 -277 -21 -310 -20 -371 8 -102 47 -155 28 -155 -55 0 -49 22 -74 100
-112 57 -28 65 -36 67 -62 2 -16 -3 -37 -10 -47 -19 -23 -276 -85 -432 -103
-457 -53 -775 -163 -1113 -384 -106 -70 -163 -125 -204 -199 -17 -28 -37 -57
-46 -62 -14 -8 -14 -11 -4 -19 11 -7 13 -34 7 -139 -7 -125 -8 -131 -31 -136
-32 -8 -55 2 -184 84 -131 84 -231 133 -312 154 -62 16 -65 18 -171 122 -40
38 -88 76 -107 84 -57 23 -97 58 -130 116 -23 41 -43 61 -80 82 -48 26 -50 29
-50 71 0 36 -6 51 -35 82 -19 21 -50 70 -69 108 -19 38 -54 90 -76 116 -48 56
-49 83 -3 106 29 15 41 14 173 -7 78 -13 184 -28 236 -33 54 -6 103 -16 116
-25 23 -17 58 -22 58 -8 0 11 366 -5 389 -17 27 -15 67 -14 99 3 31 16 216 23
299 11 41 -6 58 -4 78 9 15 10 73 23 147 32 66 8 160 23 207 34 188 42 416
102 478 125 89 34 496 236 506 252 4 7 40 32 80 55 208 121 481 416 662 714
37 60 108 192 158 292 50 102 107 201 126 223 48 52 213 123 356 153 11 2 72
4 136 5 86 1 136 -4 195 -19z m6290 -395 c18 -24 18 -87 0 -129 -11 -27 -21
-35 -52 -40 -105 -19 -133 -18 -177 3 -24 12 -53 21 -65 21 -26 0 -42 33 -42
85 0 63 62 86 219 81 87 -2 106 -6 117 -21z m-6036 -1573 c32 -26 17 -42 -39
-42 -26 0 -85 -11 -130 -25 -196 -58 -345 -51 -563 27 -32 11 -58 24 -58 29 0
25 54 28 401 29 341 0 368 -1 389 -18z m-1195 -398 c553 -15 642 -17 820 -17
105 0 318 4 475 8 325 10 429 9 466 -5 14 -6 74 -10 133 -10 112 0 171 -7 171
-20 0 -20 -257 -54 -570 -75 -324 -21 -377 -31 -442 -76 -22 -16 -45 -19 -152
-19 -114 0 -126 2 -136 20 -14 27 -59 37 -254 56 -118 11 -204 14 -282 10 -91
-6 -122 -4 -160 9 -26 9 -114 23 -196 31 -166 17 -221 30 -226 57 -7 34 16 47
77 42 31 -2 155 -7 276 -11z m-1495 -107 c30 -7 66 -20 80 -29 13 -10 38 -18
56 -18 17 0 50 -11 75 -23 24 -13 87 -47 139 -75 207 -110 460 -174 880 -222
96 -11 192 -20 212 -20 21 0 55 -9 75 -20 55 -28 130 -40 259 -40 92 0 114 -3
114 -14 0 -15 22 -20 165 -36 144 -16 235 -13 258 8 16 14 47 18 176 24 242
10 507 34 752 67 123 17 280 35 349 41 307 27 580 101 1006 271 162 64 296
102 333 94 16 -3 37 -15 47 -27 11 -11 36 -29 56 -39 57 -29 109 -79 129 -124
15 -33 19 -66 19 -184 0 -145 0 -145 -27 -174 -27 -27 -28 -34 -30 -134 -2
-66 -7 -111 -15 -120 -7 -8 -77 -65 -156 -125 -79 -61 -196 -160 -260 -220
-162 -153 -255 -219 -411 -294 -73 -36 -183 -99 -245 -141 -138 -94 -193 -120
-376 -172 -253 -73 -311 -81 -554 -81 -203 0 -217 1 -236 20 -12 12 -33 20
-54 20 -46 0 -58 18 -56 87 2 32 -3 72 -10 88 -13 32 -7 249 9 316 11 46 -11
223 -33 271 -10 21 -29 41 -46 48 -43 18 -52 33 -35 57 9 13 36 26 67 33 57
14 103 34 113 50 10 16 -12 47 -47 67 -31 18 -54 19 -368 18 -184 -1 -407 -6
-495 -10 -110 -5 -173 -4 -200 3 -48 14 -63 3 -47 -33 15 -33 72 -58 191 -86
56 -13 102 -30 118 -43 l25 -22 -56 -58 -56 -59 0 -151 c0 -83 7 -199 15 -258
l14 -107 -35 -35 c-36 -36 -41 -58 -24 -116 5 -19 7 -50 4 -69 l-7 -33 -266 5
c-349 7 -393 16 -658 142 -181 86 -272 144 -453 285 -289 227 -540 400 -701
485 -44 22 -66 43 -98 90 -67 99 -95 207 -106 401 -4 60 -14 129 -22 154 -15
43 -14 48 5 86 39 76 171 175 240 181 19 1 37 5 40 8 9 9 105 4 162 -8z m970
-88 c58 -5 142 -19 188 -29 63 -15 120 -20 232 -20 86 0 161 -5 177 -11 19 -8
235 -11 712 -12 649 -1 684 0 693 17 9 17 23 18 177 11 134 -5 204 -2 361 14
107 12 220 21 251 21 l57 0 -10 -40 c-16 -62 -37 -69 -327 -120 -62 -11 -117
-22 -121 -25 -4 -2 -94 -16 -201 -30 -107 -14 -219 -33 -249 -42 -37 -11 -101
-18 -200 -20 -79 -2 -149 -8 -156 -14 -7 -6 -52 -6 -125 1 -63 5 -206 10 -319
10 -113 0 -243 5 -290 11 -47 6 -134 16 -195 23 -261 32 -411 59 -475 86 -36
15 -154 49 -262 75 -209 49 -254 69 -228 100 15 18 62 17 310 -6z m4590 -519
c0 -12 -33 -30 -54 -30 -9 0 -16 9 -16 20 0 16 7 20 35 20 19 0 35 -4 35 -10z"/>
<path d="M51 19387 l-23 -11 6 -756 c4 -415 18 -2568 32 -4785 14 -2216 28
-4033 32 -4037 17 -16 7464 -2719 7477 -2714 13 5 14 45 10 293 -3 158 -17
2315 -32 4793 -14 2478 -29 4508 -32 4513 -4 4 -1658 608 -3677 1342 -2018
735 -3691 1344 -3719 1354 -39 14 -55 16 -74 8z m7348 -2688 c47 -17 89 -34
93 -38 8 -8 34 -4009 25 -4017 -3 -4 -48 9 -100 27 l-94 33 -6 756 c-14 1560
-20 3270 -12 3270 5 0 47 -14 94 -31z"/>
<path d="M25566 18043 c-2046 -744 -3722 -1356 -3725 -1359 -3 -3 1 -9 8 -13
8 -5 45 3 95 22 137 51 128 54 122 -44 -3 -46 -8 -655 -11 -1354 -3 -698 -8
-1567 -12 -1931 l-6 -661 -94 -33 c-52 -18 -96 -38 -98 -44 -5 -15 -38 -5427
-33 -5492 l3 -50 3714 1352 c2043 743 3721 1355 3728 1360 11 7 19 836 43
4689 17 2574 30 4728 30 4786 0 100 -1 106 -22 116 -19 9 -625 -209 -3742
-1344z"/>
</g>
</svg>
