<svg xmlns="http://www.w3.org/2000/svg" width="1706.667" height="1706.667" viewBox="0 0 1280 1280" xmlns:v="https://vecta.io/nano"><path d="M174.3 333.8l-150 71.4c.8.5.8 1 0 2-1.3 1.6 1.1 466.6 2.4 467.9 1 1 309.5 131.1 309.9 130.7.7-.8-1.4-270.2-2.2-270.5-3.4-1.2-3.4-.5-4.1-100.7l-.6-98.8 2.1 1.1c1.7.9 2.1.8 2.4-.5.2-.9 12.7-7.3 32.1-16.4l31.5-14.2c-3.5 7.7-45.3 88.3-59.2 114.2l-4.5 8.5v65l5.9 11 40.2 76.8 34.3 65.9.3-41.7.2-41.6-27.7-51.2-27.6-52.1c.1-.6 12.5-24.1 27.7-52.2l27.6-51.2v-59.8l6.5-3.2c3.6-1.7 6.5-2.8 6.5-2.4s-.7 7.9-1.5 16.7c-1.4 15.6-3.5 57.3-3.5 70.7v6.8h25.7l.7-7.7c.3-4.2.6-11.7.6-16.7.1-8.9 1.4-22.1 2.6-26 .7-2 .7-2 1.6.3 2.6 7.2 3.7 51.3 1.8 76-1.7 22.3-4.9 32.1-11 34.4l-3 1.1V759h26v-56.3l3-9.3c14.2-44.3 17.5-143.6 6.9-209.1-1.1-6.8-2.2-12.9-2.5-13.6-.4-1.1 13.4-8.2 29.6-15.3.3-.1.2 6.2-.1 13.9-.4 7.8-.7 34.7-.8 59.7-.2 50.5-1.5 98-3.1 111-2.1 16.7-5.7 26-10.1 26-1.8 0-1.9 1.1-1.9 40.4v40.5l2.2.3c3.2.4 5.7 5.5 7.8 16 3.4 16.6 4.1 33.1 5 111.8.9 80.1 1.3 87.3 5.5 106.4 4.8 21.3 11.3 29.6 24 30.4l6.5.4V931h-3.4c-4.3 0-6.2-1.9-7.6-7.3-.6-2.3-1.4-4.9-1.7-5.7s-.9-31.8-1.4-68.8l-1.9-82.5c-1.5-20.5-4.5-40.7-7.6-51.3l-2.5-8.8 2.5-9.1c7.2-25.4 8.5-43.3 9.6-131.5.9-74.3 1.2-79.5 5.6-82.7 1-.7 3.3-1.3 5.1-1.3h3.3l.1-12.8c.1-7 .4-11.6.6-10.2.3 2.6 20.4 421.5 22.3 466.5l1.6 31.2.6 6.3h27.6l.6-7.3c.6-7.3 2.4-48.1 3.2-72.7l7.8-181.5c.2-1.1.4-.3.5 1.7 0 2 1.7 40.7 3.5 86l5.1 123.8 2.1 45.7.5 4.3H630c13.7 0 14 0 14.4-2.2.3-1.3 1-14 1.6-28.3l2.1-45.5 23.2-480.7c.2-.1 2.2.5 4.5 1.5l4.2 1.7V963h31V749.2l3.7-.7c5.4-1 8.4-2.8 12.8-7.6 12.7-14.1 21.8-53.2 25.4-108.9 2.8-42.5 2.2-100.8-1.3-137.5-.8-7.7-1.2-14.2-1-14.4s1.4-.1 2.8.3c6.6 1.6 7.4 10.6 8 91.6.7 78.6 2 96.9 8.6 123l3 11.5-2.5 9c-3 10.9-6 30.9-7.5 50.5-.7 8-1.5 45.5-2 83.5-.5 47.1-1.2 70.3-1.9 73-2.6 8.9-3 9.4-7.4 9.7l-4.2.3-.3 40.4-.2 40.3 7.4-.4c11.6-.5 15.4-4.4 20.6-20.5 6.7-21 7.8-37.4 9-134.3.7-60 1.2-78.9 2.4-87.6 2.3-16.3 5.3-23.4 9.8-23.4 1.7 0 1.8-1.8 1.8-40.9v-41l-2.1-.3c-3.6-.5-5.9-4.8-7.9-14.8-3-14.5-3.9-36.1-4.5-106.5l-1.1-75.3c-.4-6.4-.3-10.2.3-10.2.9 0 26.3 11.7 27.1 12.5.1.1-.4 4-1.2 8.7-3.7 21.2-6.6 59.7-6.6 88.6v17.3l12.8-.3 12.7-.3.6-19.5c.6-20.4 1.6-30.7 3-31.5 1.8-1.2 2.4 10.8 2.4 47 0 37-.5 45-3.5 55.7-1.3 4.7-5.6 9.8-8.1 9.8-1.9 0-1.9 1.4-1.7 56.2l.3 56.3 24.5.6v-28.4c0-27.2.1-28.6 2.4-35.3 5.2-15.4 9.3-38.9 11.8-67.9 1.8-22 1.6-93-.5-116-.9-9.9-1.4-18.2-1.1-18.4.2-.3 2.9.7 5.9 2.2l5.5 2.7v58.2l26.5 51.3 26.5 52.4c0 .7-11.9 24.1-26.5 52.2L869 763v42.2l.1 42.3 78.4-155 .6-63.3-30.6-61.1-29.7-61.1c.4 0 14.2 6.3 30.7 14 21.7 10.1 29.9 14.4 29.7 15.5-.3 1.8.2 1.9 3 .4l2.1-1.1-.6 65.3-.7 99.1V734l-2.3.5-2.4.6-.6 135.1-.4 135.5c.4.4 308.8-129.6 309.9-130.6 1.2-1.1 3.5-467.5 2.3-468.4-.7-.4-.6-1 .1-1.5 1-.5-292.2-138.3-301.1-141.5-1.8-.6-35 13-155.6 63.9l-153.7 65.5c-.2.5-1.9.9-3.7.9-4.2 0-4.5 1.1-4.5 16 0 6.3-2.3 65.9-5 132.5l-5 124.4c0 1.9-.2 3.2-.5 2.9-.6-.5-10.5-243.7-10.5-257.6v-9.9l18.2-8.8-153.8-64.9-155.9-65.2c-1.1-.2-70 31.5-153.2 70.4zM563 405.3c0 2.9 3.2 78.4 7 167.7l7 164.2c0 1.3.8 1.8 3 1.8 2.8 0 3-.2 3-3.8-.1-7.2 12.1-324.8 12.6-330l.5-5.2h16.6l.6 8.7c.4 4.9 3.4 78.5 6.7 163.8l6.6 159.2c.4 3.7.9 4.3 2.9 4.3 2.9 0 2.1 13.8 9.5-169.5l6.6-157.3.6-9.2h20.1l-.6 8.7-13.2 276.8-13.1 270.2c-.4 2.2-.9 2.3-9.3 2.3h-9l-.5-5.3c-.6-5.6-13.5-314.7-13.6-325 0-1.1-.8-1.7-2.4-1.7-2.2 0-2.5.5-3 5.2-.3 2.9-1 20.4-1.5 38.8l-11.7 280.7-.6 7.3h-17.6l-.6-7.3c-.4-3.9-6.2-125.3-13.1-269.7l-13.1-271.8-.6-9.2H563v5.3zm157.4-3.4c12 7.5 21.5 43.1 26.8 100.6 2.1 22.1 1.7 120.9-.5 143.7-4.1 43.5-10.8 73-19.7 86.7-5.2 8-8.4 10.1-15.4 10.1H706v215.1l-20.5-.6L685 400h16.1c14.2 0 16.5.2 19.3 1.9zm-131.2 27.8c-.4 24.6-9.2 245.6-9.7 246.1-.3.3-.5-2-.5-5.1 0-3.2-2-52.4-4.5-109.5l-5-119.7-.6-16 9.8-4.7 10.3-4.7c.3-.1.4 6.1.2 13.6zm157.5 18.4l.2 7.4-1.4-6.5c-1.7-8.3-1.8-9.3-.2-8.8.8.3 1.3 3 1.4 7.9zM706 571.7v69.5l3.2-.6c14.5-2.9 19.6-24.4 18.5-77.8-.5-29.5-2-41-6.5-49.7-3.1-6.1-6.2-8.9-11.5-10.1l-3.7-.8v69.5zm10.5-56.2c3.9 7.8 5.5 20.3 6.2 46 .6 24.4-.6 46-3.3 57.5-1.5 6.6-5.7 15-7.4 15-.6 0-1-23.3-1-62.5 0-54.6.2-62.4 1.5-61.9.8.3 2.6 3 4 5.9zM451.2 781.3c-2.7 2.9-4.7 8.5-6.9 19.5-1.4 6.9-1.8 13.7-1.7 32.7 0 21 .3 25.3 2.2 34.4 2.4 11.1 5.1 17.5 7.7 18.5 7.9 3 11.8-3.6 15.1-24.9 1.2-7.8 1.5-15.3 1.1-34-.6-24.8-1.7-33.1-5.6-42-2.9-6.7-7.9-8.4-11.9-4.2zm378-1.1c-5.6 7.1-8.2 20.8-8.9 46.5-.9 34.8 3.2 56.8 11.2 60.5 5.6 2.5 10-4.9 13.2-22.5 2.1-11.7 2.4-49.2.4-61.2-1.8-10.9-4.5-19.2-7.2-22.1-2.4-2.6-7-3.2-8.7-1.2z"/></svg>